{
    "accessors" : [
        {
            "bufferView" : 0,
            "componentType" : 5121,
            "count" : 36,
            "max" : [
                23
            ],
            "min" : [
                0
            ],
            "type" : "SCALAR"
        },
        {
            "bufferView" : 1,
            "componentType" : 5126,
            "count" : 24,
            "max" : [
                2.905001640319824,
                2.9000000953674316,
                0.905000627040863
            ],
            "min" : [
                -1.0000003576278687,
                -0.9000000357627869,
                -2.999999523162842
            ],
            "type" : "VEC3"
        },
        {
            "bufferView" : 2,
            "componentType" : 5126,
            "count" : 24,
            "max" : [
                0.9999999403953552,
                0.0,
                0.9999999403953552
            ],
            "min" : [
                -1.0,
                -1.485988292415641e-07,
                -0.9999999403953552
            ],
            "type" : "VEC3"
        },
        {
            "bufferView" : 3,
            "componentType" : 5123,
            "count" : 1056,
            "max" : [
                524
            ],
            "min" : [
                0
            ],
            "type" : "SCALAR"
        },
        {
            "bufferView" : 4,
            "componentType" : 5126,
            "count" : 525,
            "max" : [
                3.0000016689300537,
                3.0,
                1.0000016689300537
            ],
            "min" : [
                -1.0000003576278687,
                -1.0,
                -2.999999523162842
            ],
            "type" : "VEC3"
        },
        {
            "bufferView" : 5,
            "componentType" : 5126,
            "count" : 525,
            "max" : [
                1.0,
                1.0,
                1.0
            ],
            "min" : [
                -1.0,
                -1.0,
                -1.0
            ],
            "type" : "VEC3"
        },
        {
            "bufferView" : 6,
            "componentType" : 5121,
            "count" : 18,
            "max" : [
                11
            ],
            "min" : [
                0
            ],
            "type" : "SCALAR"
        },
        {
            "bufferView" : 7,
            "componentType" : 5126,
            "count" : 12,
            "max" : [
                3.0000016689300537,
                2.9000000953674316,
                1.0000016689300537
            ],
            "min" : [
                -0.9000003933906555,
                -0.9000000357627869,
                -2.899998426437378
            ],
            "type" : "VEC3"
        },
        {
            "bufferView" : 8,
            "componentType" : 5126,
            "count" : 12,
            "max" : [
                0.9999999403953552,
                0.0,
                1.0
            ],
            "min" : [
                -5.283514497023134e-07,
                -1.320879050581425e-07,
                6.604392410736182e-07
            ],
            "type" : "VEC3"
        },
        {
            "bufferView" : 9,
            "componentType" : 5121,
            "count" : 42,
            "max" : [
                27
            ],
            "min" : [
                0
            ],
            "type" : "SCALAR"
        },
        {
            "bufferView" : 10,
            "componentType" : 5126,
            "count" : 28,
            "max" : [
                2.905001640319824,
                2.9000000953674316,
                0.9050016403198242
            ],
            "min" : [
                -1.0000003576278687,
                -1.0,
                -2.999999523162842
            ],
            "type" : "VEC3"
        },
        {
            "bufferView" : 11,
            "componentType" : 5126,
            "count" : 28,
            "max" : [
                6.604392410736182e-07,
                2.146427391380712e-07,
                -0.0
            ],
            "min" : [
                -1.0,
                -1.0,
                -0.9999999403953552
            ],
            "type" : "VEC3"
        },
        {
            "bufferView" : 12,
            "componentType" : 5121,
            "count" : 18,
            "max" : [
                11
            ],
            "min" : [
                0
            ],
            "type" : "SCALAR"
        },
        {
            "bufferView" : 13,
            "componentType" : 5126,
            "count" : 12,
            "max" : [
                3.0000016689300537,
                2.9000000953674316,
                1.0000005960464478
            ],
            "min" : [
                -0.9000003933906555,
                -0.9000000357627869,
                -2.899998426437378
            ],
            "type" : "VEC3"
        },
        {
            "bufferView" : 14,
            "componentType" : 5126,
            "count" : 12,
            "max" : [
                0.9999999403953552,
                0.0,
                1.0
            ],
            "min" : [
                -4.953295160703419e-07,
                0.0,
                6.604392410736182e-07
            ],
            "type" : "VEC3"
        },
        {
            "bufferView" : 15,
            "componentType" : 5121,
            "count" : 18,
            "max" : [
                11
            ],
            "min" : [
                0
            ],
            "type" : "SCALAR"
        },
        {
            "bufferView" : 16,
            "componentType" : 5126,
            "count" : 12,
            "max" : [
                2.905001640319824,
                3.0,
                0.9050016403198242
            ],
            "min" : [
                -0.9000003933906555,
                3.0,
                -2.8999996185302734
            ],
            "type" : "VEC3"
        },
        {
            "bufferView" : 17,
            "componentType" : 5126,
            "count" : 12,
            "max" : [
                0.0,
                1.0,
                0.0
            ],
            "min" : [
                0.0,
                0.9999999403953552,
                0.0
            ],
            "type" : "VEC3"
        }
    ],
    "asset" : {
        "generator" : "Khronos Blender glTF 2.0 exporter",
        "version" : "2.0"
    },
    "bufferViews" : [
        {
            "buffer" : 0,
            "byteLength" : 36,
            "byteOffset" : 0,
            "target" : 34963
        },
        {
            "buffer" : 0,
            "byteLength" : 288,
            "byteOffset" : 36,
            "target" : 34962
        },
        {
            "buffer" : 0,
            "byteLength" : 288,
            "byteOffset" : 324,
            "target" : 34962
        },
        {
            "buffer" : 0,
            "byteLength" : 2112,
            "byteOffset" : 612,
            "target" : 34963
        },
        {
            "buffer" : 0,
            "byteLength" : 6300,
            "byteOffset" : 2724,
            "target" : 34962
        },
        {
            "buffer" : 0,
            "byteLength" : 6300,
            "byteOffset" : 9024,
            "target" : 34962
        },
        {
            "buffer" : 0,
            "byteLength" : 18,
            "byteOffset" : 15324,
            "target" : 34963
        },
        {
            "buffer" : 0,
            "byteLength" : 144,
            "byteOffset" : 15344,
            "target" : 34962
        },
        {
            "buffer" : 0,
            "byteLength" : 144,
            "byteOffset" : 15488,
            "target" : 34962
        },
        {
            "buffer" : 0,
            "byteLength" : 42,
            "byteOffset" : 15632,
            "target" : 34963
        },
        {
            "buffer" : 0,
            "byteLength" : 336,
            "byteOffset" : 15676,
            "target" : 34962
        },
        {
            "buffer" : 0,
            "byteLength" : 336,
            "byteOffset" : 16012,
            "target" : 34962
        },
        {
            "buffer" : 0,
            "byteLength" : 18,
            "byteOffset" : 16348,
            "target" : 34963
        },
        {
            "buffer" : 0,
            "byteLength" : 144,
            "byteOffset" : 16368,
            "target" : 34962
        },
        {
            "buffer" : 0,
            "byteLength" : 144,
            "byteOffset" : 16512,
            "target" : 34962
        },
        {
            "buffer" : 0,
            "byteLength" : 18,
            "byteOffset" : 16656,
            "target" : 34963
        },
        {
            "buffer" : 0,
            "byteLength" : 144,
            "byteOffset" : 16676,
            "target" : 34962
        },
        {
            "buffer" : 0,
            "byteLength" : 144,
            "byteOffset" : 16820,
            "target" : 34962
        }
    ],
    "buffers" : [
        {
            "byteLength" : 16964,
            "uri" : "marmelab.bin"
        }
    ],
    "materials" : [
        {
            "name" : "Material",
            "pbrMetallicRoughness" : {
                "baseColorFactor" : [
                    0.7681514024734497,
                    0.7681514024734497,
                    0.7681514024734497,
                    1.0
                ],
                "metallicFactor" : 0.0
            }
        },
        {
            "name" : "Material.001",
            "pbrMetallicRoughness" : {
                "baseColorFactor" : [
                    0.02624121680855751,
                    0.07618539035320282,
                    0.34191444516181946,
                    1.0
                ],
                "metallicFactor" : 0.0
            }
        },
        {
            "name" : "Material.002",
            "pbrMetallicRoughness" : {
                "baseColorFactor" : [
                    0.043735042214393616,
                    0.12743769586086273,
                    0.4125427007675171,
                    1.0
                ],
                "metallicFactor" : 0.0
            }
        },
        {
            "name" : "Material.003",
            "pbrMetallicRoughness" : {
                "baseColorFactor" : [
                    0.009134056977927685,
                    0.009134056977927685,
                    0.009134056977927685,
                    1.0
                ],
                "metallicFactor" : 0.0
            }
        },
        {
            "name" : "Material.004",
            "pbrMetallicRoughness" : {
                "baseColorFactor" : [
                    0.018848657608032227,
                    0.018848657608032227,
                    0.018848657608032227,
                    1.0
                ],
                "metallicFactor" : 0.0
            }
        },
        {
            "name" : "Material.005",
            "pbrMetallicRoughness" : {
                "metallicFactor" : 0.0
            }
        }
    ],
    "meshes" : [
        {
            "name" : "Cube",
            "primitives" : [
                {
                    "attributes" : {
                        "NORMAL" : 2,
                        "POSITION" : 1
                    },
                    "indices" : 0,
                    "material" : 3
                },
                {
                    "attributes" : {
                        "NORMAL" : 5,
                        "POSITION" : 4
                    },
                    "indices" : 3,
                    "material" : 5
                },
                {
                    "attributes" : {
                        "NORMAL" : 8,
                        "POSITION" : 7
                    },
                    "indices" : 6,
                    "material" : 2
                },
                {
                    "attributes" : {
                        "NORMAL" : 11,
                        "POSITION" : 10
                    },
                    "indices" : 9,
                    "material" : 4
                },
                {
                    "attributes" : {
                        "NORMAL" : 14,
                        "POSITION" : 13
                    },
                    "indices" : 12,
                    "material" : 1
                },
                {
                    "attributes" : {
                        "NORMAL" : 17,
                        "POSITION" : 16
                    },
                    "indices" : 15,
                    "material" : 0
                }
            ]
        }
    ],
    "nodes" : [
        {
            "name" : "Camera",
            "rotation" : [
                0.48170700669288635,
                0.3342514932155609,
                -0.21292175352573395,
                0.7816000580787659
            ],
            "scale" : [
                1.0,
                1.0,
                0.9999999403953552
            ],
            "translation" : [
                7.481131553649902,
                5.34366512298584,
                6.5076398849487305
            ]
        },
        {
            "mesh" : 0,
            "name" : "Cube"
        },
        {
            "name" : "Lamp",
            "rotation" : [
                0.16907575726509094,
                0.7558802962303162,
                -0.27217137813568115,
                0.570947527885437
            ],
            "scale" : [
                1.0,
                1.0,
                0.9999999403953552
            ],
            "translation" : [
                4.076245307922363,
                5.903861999511719,
                -1.0054539442062378
            ]
        }
    ],
    "scene" : 0,
    "scenes" : [
        {
            "name" : "Scene",
            "nodes" : [
                1,
                2,
                0
            ]
        }
    ]
}
